HIERARCHY
ROOT Hips
{
	OFFSET 0.00000 0.00000 0.00000
	CHANNELS 6 Xposition Yposition Zposition Zrotation Yrotation Xrotation 
	JOINT LHipJoint
	{
		OFFSET 0 0 0
		CHANNELS 3 Zrotation Yrotation Xrotation
		JOINT LeftUpLeg
		{
			OFFSET 1.57358 -1.76629 0.73362
			CHANNELS 3 Zrotation Yrotation Xrotation
			JOINT LeftLeg
			{
				OFFSET 2.40600 -6.61045 0.00000
				CHANNELS 3 Zrotation Yrotation Xrotation
				JOINT LeftFoot
				{
					OFFSET 2.66168 -7.31291 0.00000
					CHANNELS 3 Zrotation Yrotation Xrotation
					JOINT LeftToeBase
					{
						OFFSET 0.20870 -0.57341 2.12506
						CHANNELS 3 Zrotation Yrotation Xrotation
						End Site
						{
							OFFSET 0.00000 -0.00000 1.10557
						}
					}
				}
			}
		}
	}
	JOINT RHipJoint
	{
		OFFSET 0 0 0
		CHANNELS 3 Zrotation Yrotation Xrotation
		JOINT RightUpLeg
		{
			OFFSET -1.49299 -1.76629 0.73362
			CHANNELS 3 Zrotation Yrotation Xrotation
			JOINT RightLeg
			{
				OFFSET -2.43663 -6.69460 0.00000
				CHANNELS 3 Zrotation Yrotation Xrotation
				JOINT RightFoot
				{
					OFFSET -2.62959 -7.22474 0.00000
					CHANNELS 3 Zrotation Yrotation Xrotation
					JOINT RightToeBase
					{
						OFFSET -0.25784 -0.70841 2.21862
						CHANNELS 3 Zrotation Yrotation Xrotation
						End Site
						{
							OFFSET -0.00000 -0.00000 1.16452
						}
					}
				}
			}
		}
	}
	JOINT LowerBack
	{
		OFFSET 0 0 0
		CHANNELS 3 Zrotation Yrotation Xrotation
		JOINT Spine
		{
			OFFSET -0.00034 2.12399 -0.25450
			CHANNELS 3 Zrotation Yrotation Xrotation
			JOINT Spine1
			{
				OFFSET 0.05594 2.14379 -0.03318
				CHANNELS 3 Zrotation Yrotation Xrotation
				JOINT Neck
				{
					OFFSET 0 0 0
					CHANNELS 3 Zrotation Yrotation Xrotation
					JOINT Neck1
					{
						OFFSET -0.09835 1.62725 0.24211
						CHANNELS 3 Zrotation Yrotation Xrotation
						JOINT Head
						{
							OFFSET 0.10849 1.66041 -0.22648
							CHANNELS 3 Zrotation Yrotation Xrotation
							End Site
							{
								OFFSET 0.04385 1.68267 -0.10541
							}
						}
					}
				}
				JOINT LeftShoulder
				{
					OFFSET 0 0 0
					CHANNELS 3 Zrotation Yrotation Xrotation
					JOINT LeftArm
					{
						OFFSET 3.29108 0.79398 -0.68179
						CHANNELS 3 Zrotation Yrotation Xrotation
						JOINT LeftForeArm
						{
							OFFSET 5.15310 -0.00000 -0.00000
							CHANNELS 3 Zrotation Yrotation Xrotation
							JOINT LeftHand
							{
								OFFSET 3.75138 -0.00000 -0.00000
								CHANNELS 3 Zrotation Yrotation Xrotation
								JOINT LeftFingerBase
								{
									OFFSET 0 0 0
									CHANNELS 3 Zrotation Yrotation Xrotation
									JOINT LeftHandIndex1
									{
										OFFSET 0.52917 -0.00000 0.00000
										CHANNELS 3 Zrotation Yrotation Xrotation
										End Site
										{
											OFFSET 0.42663 -0.00000 0.00000
										}
									}
								}
								JOINT LThumb
								{
									OFFSET 0 0 0
									CHANNELS 3 Zrotation Yrotation Xrotation
									End Site
									{
										OFFSET 0.43315 -0.00000 0.43315
									}
								}
							}
						}
					}
				}
				JOINT RightShoulder
				{
					OFFSET 0 0 0
					CHANNELS 3 Zrotation Yrotation Xrotation
					JOINT RightArm
					{
						OFFSET -3.07414 1.06285 -0.44338
						CHANNELS 3 Zrotation Yrotation Xrotation
						JOINT RightForeArm
						{
							OFFSET -5.29613 -0.00000 0.00000
							CHANNELS 3 Zrotation Yrotation Xrotation
							JOINT RightHand
							{
								OFFSET -3.76144 -0.00000 -0.00000
								CHANNELS 3 Zrotation Yrotation Xrotation
								JOINT RightFingerBase
								{
									OFFSET 0 0 0
									CHANNELS 3 Zrotation Yrotation Xrotation
									JOINT RightHandIndex1
									{
										OFFSET -0.74732 -0.00000 0.00000
										CHANNELS 3 Zrotation Yrotation Xrotation
										End Site
										{
											OFFSET -0.60251 -0.00000 0.00000
										}
									}
								}
								JOINT RThumb
								{
									OFFSET 0 0 0
									CHANNELS 3 Zrotation Yrotation Xrotation
									End Site
									{
										OFFSET -0.61171 -0.00000 0.61171
									}
								}
							}
						}
					}
				}
			}
		}
	}
}
MOTION
Frames: 16
Frame Time: 0.125
0.00 0.00 0.00 0 0 0 0 0 0 -21 0 0 0 0 0 0 0 0 0 0 0 0 0 0 21 0 0 0 0 0 0 0 0 0 0 0 0 0 0 0 0 0 0 0 0 0 0 -16 0 0 21 0 0 11 0 0 0 -8 0 0 0 0 0 0 0 0 0 0 0 0 0 0 0 0 0 0 0 0 8 0 0 0 0 0 0 0 0 0 0 0 0 0 0 0 0 0
0.00 0.00 0.00 -4.7167 -4.1906 0.7207 0.0000 0.0000 0.0000 -11.1296 -10.8693 -31.9990 7.8051 15.9740 51.8576 0.2754 1.4054 -10.5279 0.0818 -1.8444 -5.0758 0.0000 0.0000 0.0000 31.8949 8.1984 0.7609 -1.7835 -8.3997 23.9347 -0.8735 -3.5561 -19.2859 -0.0315 -1.1455 3.1492 1.1821 -0.7230 8.9699 5.4024 -0.4638 -1.9569 5.1273 -0.1523 -7.0833 -13.1024 -1.5021 -7.7080 5.2773 -1.1048 19.4810 3.8231 -1.0219 7.3634 -0.0000 0.0000 0.0000 -93.9424 9.5364 21.1394 16.2852 -25.9058 -3.7697 -0.0000 -0.0000 6.8343 16.4077 31.1303 8.6558 -7.1250 0.0000 -0.0000 -18.0168 61.2725 -7.2726 -0.0000 0.0000 0.0000 82.6395 -1.1840 21.0651 -18.1418 28.3384 -4.6164 0.0000 0.0000 3.6750 -17.9675 10.0247 -3.2309 7.1250 -0.0000 -0.0000 6.4214 -19.4869 3.9361
0.00 0.00 0.00 -5.5644 -5.7463 1.8319 0.0000 0.0000 0.0000 -8.9116 -13.4193 -32.9459 3.4960 11.4577 33.8395 0.0919 4.2833 -8.8613 0.2215 -3.0295 -8.3609 0.0000 0.0000 0.0000 32.6920 5.6444 6.8870 -1.1843 -6.9063 19.4381 -0.9588 -2.9295 -19.7734 -0.0049 0.4510 -1.2392 4.5315 -0.2884 4.6325 3.7512 -0.0381 -0.1190 1.3302 -0.0585 -2.7254 -12.1969 -1.2520 -6.8280 6.6229 -1.1933 16.1289 4.0520 -0.8191 6.1179 -0.0000 0.0000 0.0000 -92.6534 8.4046 18.0618 15.0022 -24.1491 -3.2268 -0.0000 -0.0000 7.8133 20.6112 23.0122 8.3641 -7.1250 0.0000 -0.0000 -8.9446 54.1652 -2.0272 -0.0000 0.0000 0.0000 83.8242 5.3628 24.5543 -19.7484 30.3380 -5.4037 0.0000 0.0000 2.5662 -18.4572 11.6598 -3.8590 7.1250 -0.0000 -0.0000 6.0857 -17.7480 3.9634
0.00 0.00 0.00 -4.9156 -7.1320 1.1588 0.0000 0.0000 0.0000 -12.6301 -14.4792 -30.8162 1.7724 8.3750 23.8591 0.0854 -3.3608 -5.3547 0.1724 -2.6749 -7.3748 0.0000 0.0000 0.0000 28.2020 -1.2674 17.6807 -1.6156 -8.0148 22.7589 -0.1719 4.4396 -7.5357 -0.8045 5.7242 -15.9864 1.1571 -0.5054 6.6430 6.2207 -0.1125 -4.1124 5.9947 0.0780 -8.0902 -16.4700 0.6767 -1.7131 5.9100 1.1766 19.0886 4.6972 -0.1603 5.9609 0.0000 0.0000 0.0000 -102.0128 18.3990 1.6291 11.4160 -18.9231 -1.9086 -0.0000 -0.0000 14.3495 15.0009 20.9114 5.4634 -7.1250 0.0000 -0.0000 -13.6807 51.0541 -2.0736 0.0000 0.0000 0.0000 77.3549 0.2839 30.0664 -24.3148 35.4953 -7.8886 0.0000 -0.0000 -1.7701 -18.2864 11.3906 -3.7340 7.1250 -0.0000 -0.0000 6.2023 -18.0419 4.0000
0.00 0.00 0.00 -3.3605 -7.4718 0.4786 0.0000 0.0000 0.0000 -15.4455 -15.5986 -29.1109 2.3459 9.5522 27.5385 -0.0569 -4.2371 1.8229 0.0758 -1.7758 -4.8864 0.0000 0.0000 0.0000 24.4496 -1.5446 14.0664 -3.3243 -11.2024 32.9656 -0.0376 4.0002 7.0630 -0.2900 3.4628 -9.5701 3.2699 3.1244 6.2331 2.0238 4.5201 -1.2129 -0.1869 2.1769 -4.6635 -10.6994 -4.7002 -13.3807 6.5345 -5.6764 22.8800 3.3691 -2.8417 9.9802 -0.0000 -0.0000 0.0000 -92.9464 11.1648 11.6119 9.7457 -16.3409 -1.4026 -0.0000 -0.0000 16.2876 14.1931 23.4580 5.7490 -7.1250 0.0000 -0.0000 -15.5922 53.4147 -3.2896 -0.0000 -0.0000 0.0000 83.5617 4.0284 16.2790 -24.2987 35.4785 -7.8792 0.0000 -0.0000 -1.2868 -18.2004 11.8535 -3.8637 7.1250 -0.0000 -0.0000 6.2674 -17.5664 4.1084
0.00 0.00 0.00 -0.7614 -7.9472 -0.9879 0.0000 0.0000 0.0000 -20.5491 -14.6009 -25.5130 3.0713 10.8096 31.6403 -0.0402 -3.8010 -0.0529 0.0000 0.0196 0.0537 0.0000 0.0000 0.0000 20.3669 0.9282 6.1935 -7.4927 -15.7331 50.7140 -0.8331 2.3194 18.2294 -0.1445 -2.4497 6.7502 0.8749 3.2374 7.1844 1.1954 4.4513 -0.8002 0.2472 2.1946 -4.8839 -10.6195 -4.4771 -14.9980 6.7234 -5.2713 23.3363 3.4677 -2.6011 10.4158 -0.0000 -0.0000 0.0000 -92.9810 11.0560 10.0577 10.1468 -16.9689 -1.5175 -0.0000 -0.0000 15.1935 13.5077 24.2619 5.6373 -7.1250 0.0000 -0.0000 -16.6708 54.0685 -3.7968 -0.0000 -0.0000 0.0000 84.9304 3.5250 14.3998 -23.2158 34.3240 -7.2596 0.0000 0.0000 0.1432 -18.3294 10.9384 -3.5971 7.1250 -0.0000 -0.0000 6.1683 -18.5099 3.9137
0.00 0.00 0.00 2.1258 -8.4029 -2.1949 0.0000 0.0000 0.0000 -26.4240 -11.9640 -18.1679 3.0599 10.7913 31.5793 0.1135 -3.9781 -6.1965 0.0050 0.4547 1.2495 0.0000 0.0000 0.0000 15.4822 2.8224 -7.0068 -12.9561 -18.7663 68.9892 -0.0937 -3.1917 5.5460 -0.3323 -3.7046 10.2471 -1.9965 2.8642 7.5115 0.6206 3.6668 -0.2599 1.3406 1.8695 -4.6463 -10.8687 -3.8599 -15.0218 6.2804 -4.1987 22.9137 3.4915 -2.1752 10.1582 -0.0000 -0.0000 0.0000 -92.9393 8.4417 9.8153 9.5495 -16.0319 -1.3479 -0.0000 -0.0000 13.3386 16.1201 23.6827 6.6218 -7.1250 0.0000 -0.0000 -13.7823 53.9892 -3.0905 -0.0000 -0.0000 0.0000 86.4448 3.7571 12.6901 -19.7291 30.3146 -5.3939 0.0000 0.0000 2.8992 -17.3883 13.0145 -4.0339 7.1250 -0.0000 -0.0000 6.8456 -16.4275 4.6640
0.00 0.00 0.00 4.5243 -4.0199 -1.7385 0.0000 0.0000 0.0000 -32.1615 -7.2772 -7.6402 2.8485 10.4457 30.4326 0.5669 -9.4633 -14.0251 0.1544 2.5321 6.9787 0.0000 0.0000 0.0000 11.7021 4.8572 -27.7307 -12.2819 -18.5073 66.8795 -0.3114 -0.0769 -10.5698 -0.0133 0.7454 -2.0485 -4.1234 0.5964 6.7362 0.4205 0.4754 -0.6029 2.7048 0.3400 -4.4471 -11.0464 -3.1635 -13.6732 4.4956 -2.8977 23.6642 3.0744 -1.8262 10.0326 0.0000 0.0000 0.0000 -90.6428 3.9346 18.7716 11.9027 -19.6585 -2.0694 -0.0000 -0.0000 12.7623 14.7402 28.6806 7.1964 -7.1250 0.0000 -0.0000 -18.0188 58.5564 -6.0997 0.0000 0.0000 0.0000 88.3543 -2.2250 11.0504 -17.0499 26.9235 -4.1099 0.0000 0.0000 6.0286 -16.4182 12.5955 -3.6765 7.1250 -0.0000 -0.0000 7.5128 -16.9376 5.0421
0.00 0.00 0.00 5.8514 -3.3646 -0.7618 0.0000 0.0000 0.0000 -34.6509 -3.4056 -2.2732 2.3628 9.5840 27.6399 0.8878 -9.9498 -17.1736 0.1215 2.2474 6.1900 0.0000 0.0000 0.0000 9.0340 9.8646 -32.5572 -7.3737 -15.6387 50.2741 -0.2675 -2.6331 -11.1019 -0.0006 0.1526 -0.4192 -5.8848 0.2971 6.6754 0.3650 -0.0679 -0.6471 3.6968 0.1128 -4.4202 -11.0836 -2.9589 -14.0529 4.3993 -2.5203 23.1445 3.0851 -1.6489 9.8854 -0.0000 0.0000 0.0000 -88.4352 1.5028 25.2517 15.4939 -24.8297 -3.4307 -0.0000 -0.0000 4.0907 16.9331 25.7721 7.5406 -7.1250 0.0000 -0.0000 -13.9963 56.2081 -3.9013 -0.0000 0.0000 0.0000 88.2685 -6.2233 12.9816 -17.4821 27.4889 -4.3075 0.0000 0.0000 5.0396 -15.1399 13.1068 -3.5110 7.1250 -0.0000 -0.0000 8.3961 -16.5118 5.7260
0.00 0.00 0.00 5.4644 -1.9772 0.2314 0.0000 0.0000 0.0000 -34.7163 -1.3634 3.0822 1.7250 8.2681 23.5313 0.9489 -9.6886 -17.6606 0.0524 1.4779 4.0648 0.0000 0.0000 0.0000 6.7773 15.1055 -31.4106 -3.2979 -11.1624 32.8295 0.2012 -7.9948 -4.0536 -0.0127 -0.7284 2.0017 -5.8167 -0.1257 6.4456 0.6818 -0.5949 -0.5677 4.0403 -0.1565 -4.1476 -10.9255 -2.9904 -15.0160 4.3193 -2.4607 22.9372 3.0307 -1.6012 9.9852 0.0000 -0.0000 0.0000 -87.0869 -0.9195 26.1555 18.1203 -28.3109 -4.6061 -0.0000 -0.0000 1.2773 16.9773 16.8618 5.0607 -7.1250 0.0000 -0.0000 -10.4103 47.2904 -0.5945 0.0000 -0.0000 0.0000 88.3786 -8.2841 12.2536 -17.4630 27.4641 -4.2987 0.0000 0.0000 4.7680 -15.5963 15.0849 -4.1549 7.1250 -0.0000 -0.0000 8.0965 -14.4551 5.8792
0.00 0.00 0.00 4.9450 0.6497 0.6227 0.0000 0.0000 0.0000 -34.3959 -1.1872 10.9698 1.3745 7.4193 20.9638 0.7762 -10.6079 -16.3185 0.0028 -0.3407 -0.9362 0.0000 0.0000 0.0000 3.1971 19.3664 -26.8391 -0.5941 -4.9346 13.7222 -0.0676 -0.0995 -4.9485 -0.2292 3.0813 -8.5052 -5.7126 -0.6446 6.3168 1.2928 -1.2420 -0.4093 4.6779 -0.4879 -3.8248 -10.9260 -2.9466 -14.6970 3.9400 -2.3359 22.5797 2.9081 -1.5787 9.7854 0.0000 0.0000 0.0000 -87.1510 -3.1981 23.4333 21.2940 -32.1700 -6.2058 -0.0000 0.0000 -0.5443 16.4196 23.0580 6.5838 -7.1250 0.0000 -0.0000 -13.1975 53.4263 -2.7728 0.0000 0.0000 0.0000 88.1495 -10.4194 9.1769 -16.3302 25.9663 -3.7894 0.0000 0.0000 4.9078 -15.6355 15.0998 -4.1699 7.1250 -0.0000 -0.0000 8.0702 -14.4363 5.8629
0.00 0.00 0.00 2.8512 3.2467 -0.1951 0.0000 0.0000 0.0000 -33.8281 -4.7852 11.0065 3.7856 11.8695 35.2719 -0.0459 -9.2333 -5.6031 0.5985 -4.9523 -13.7727 0.0000 0.0000 0.0000 5.0983 20.9604 -25.0245 -1.3697 -7.4069 20.9265 0.2149 8.2218 2.2187 -0.2723 3.3565 -9.2730 -4.1588 -1.1190 7.4877 2.3456 -1.7548 -0.1556 4.9811 -0.7591 -4.1673 -10.5169 -2.5056 -15.1670 2.8497 -1.4852 23.3703 2.5728 -1.2899 10.0816 0.0000 0.0000 0.0000 -88.2302 -2.9423 19.5488 22.7183 -33.7794 -6.9811 -0.0000 0.0000 -3.3634 22.1123 28.0746 10.8253 -7.1250 0.0000 -0.0000 -9.7073 59.6475 -3.4915 0.0000 0.0000 0.0000 87.5560 -10.7196 5.1807 -14.2829 23.1377 -2.9384 0.0000 0.0000 10.5233 -15.5854 13.3410 -3.6826 7.1250 -0.0000 -0.0000 8.0899 -16.2382 5.5613
0.00 0.00 0.00 -11.8742 32.1401 -3.1272 0.0000 0.0000 0.0000 -14.4690 -11.2322 -37.0684 2.1040 9.0795 26.0442 0.0392 5.1106 -8.4478 0.2567 3.2597 9.0026 0.0000 0.0000 0.0000 28.2858 0.1142 16.4158 -0.0688 -1.6928 4.6575 -0.5228 0.3075 -13.5585 -0.6667 5.2219 -14.5424 6.4887 -1.1033 7.9307 6.0754 -0.4763 -0.5482 2.7747 -0.2966 -5.0513 -7.8484 -3.6401 -14.7095 3.1218 -3.7973 22.0340 1.9184 -2.0455 9.6203 -0.0000 0.0000 0.0000 -91.8501 4.9538 14.4441 9.7962 -16.4202 -1.4168 -0.0000 -0.0000 15.4064 16.9607 20.6254 6.1319 -7.1250 0.0000 -0.0000 -11.6702 51.0911 -1.7718 -0.0000 0.0000 0.0000 85.0118 -6.6580 17.1633 -27.2825 38.4473 -9.6743 0.0000 -0.0000 -6.3308 -20.2111 11.2113 -4.0942 7.1250 -0.0000 -0.0000 4.8481 -18.0785 3.1155
0.00 0.00 0.00 -7.7671 31.9826 -0.4876 0.0000 0.0000 0.0000 -17.5945 -12.8536 -36.8225 2.9736 10.6522 31.1156 -0.0173 3.6323 -4.2847 0.0520 1.4714 4.0470 0.0000 0.0000 0.0000 24.2868 -1.0339 20.5197 -0.9078 -6.0714 16.9918 0.1339 6.4982 1.7844 -2.1026 9.0766 -26.0351 4.4812 0.8784 7.2467 3.8109 1.8179 -1.3477 1.2421 0.8306 -5.4703 -8.9125 -3.4685 -15.6385 3.8252 -3.3664 23.9699 2.4120 -1.8638 10.5016 -0.0000 0.0000 0.0000 -92.3796 6.4888 -21.7507 5.5987 -9.5912 -0.4701 -0.0000 -0.0000 39.0409 15.8955 22.5995 6.2453 -7.1250 0.0000 -0.0000 -13.5151 52.8774 -2.6584 -0.0000 0.0000 0.0000 86.1600 -5.8608 13.4537 -23.4168 34.5415 -7.3733 0.0000 -0.0000 -1.4462 -18.4550 13.4074 -4.4248 7.1250 -0.0000 -0.0000 6.1178 -15.9271 4.2286
0.00 0.00 0.00 5.7447 46.1730 5.7918 0.0000 0.0000 0.0000 -26.5178 0.1538 12.5426 2.9003 10.5319 30.7169 -0.0277 -8.2565 11.2003 0.8234 -5.7897 -16.1754 0.0000 0.0000 0.0000 14.9003 10.8814 -28.7127 -2.1258 -9.1234 26.1820 0.0536 -4.1096 -1.7582 -0.0116 0.6957 -1.9119 -6.8756 -2.6975 6.9698 2.5093 -4.0586 -0.2572 6.8834 -1.8727 -3.5184 -9.3896 -2.9642 -16.1428 2.8051 -2.1800 24.4524 2.2925 -1.4846 10.6956 -0.0000 -0.0000 0.0000 -88.5732 -2.2618 23.1943 23.9115 -35.0706 -7.6557 -0.0000 -0.0000 1.3276 16.9605 24.2069 7.1279 -7.1250 0.0000 -0.0000 -13.1828 54.6673 -3.1720 -0.0000 -0.0000 0.0000 91.0102 -9.0740 -0.8015 -11.5884 19.1845 -1.9649 0.0000 0.0000 13.4890 -17.9025 12.0665 -3.8633 7.1250 -0.0000 -0.0000 6.4777 -17.3684 4.2763
0.00 0.00 0.00 2.7882 45.7986 2.6774 0.0000 0.0000 0.0000 -23.3414 -2.3466 5.1462 6.1866 14.6068 45.7263 1.8494 -5.9156 28.3760 0.0028 0.3442 0.9457 0.0000 0.0000 0.0000 19.2901 11.7432 -23.8561 -2.5240 -9.8814 28.5935 0.0341 -3.4606 -2.4537 -0.0212 -0.9395 2.5822 -4.6270 -2.0308 7.5765 2.8068 -2.9851 0.0610 5.8524 -1.3706 -3.7996 -9.4302 -3.4057 -16.5856 3.2239 -2.8628 24.3487 2.3494 -1.7459 10.7955 -0.0000 -0.0000 0.0000 -89.3727 -2.2397 20.5846 21.9971 -32.9737 -6.5842 -0.0000 -0.0000 2.8685 21.4130 27.5832 10.2918 -7.1250 0.0000 -0.0000 -10.2098 58.9873 -3.5130 -0.0000 -0.0000 0.0000 91.2177 -8.3511 -3.8166 -10.7871 17.9612 -1.7097 0.0000 0.0000 15.4521 -17.2295 11.6208 -3.5745 7.1250 -0.0000 -0.0000 6.9443 -17.8818 4.5099
